<svg width="17" height="19" viewBox="0 0 17 19" fill="none" xmlns="http://www.w3.org/2000/svg">
<path d="M8.75586 5.70001H13.1891" stroke="#DDE4F2" stroke-width="0.7" stroke-linecap="square" stroke-linejoin="round"/>
<path d="M8.75586 9.79694H13.1891" stroke="#DDE4F2" stroke-width="0.7" stroke-linecap="square" stroke-linejoin="round"/>
<path d="M4.45946 14.4065C4.71321 14.4065 4.91892 14.1771 4.91892 13.8941C4.91892 13.6111 4.71321 13.3817 4.45946 13.3817C4.20571 13.3817 4 13.6111 4 13.8941C4 14.1771 4.20571 14.4065 4.45946 14.4065Z" fill="#DDE4F2" stroke="#F1F2F5" stroke-width="0.3" stroke-linecap="round" stroke-linejoin="round"/>
<path d="M4.45946 10.5249C4.71321 10.5249 4.91892 10.2954 4.91892 10.0125C4.91892 9.72947 4.71321 9.50006 4.45946 9.50006C4.20571 9.50006 4 9.72947 4 10.0125C4 10.2954 4.20571 10.5249 4.45946 10.5249Z" fill="#DDE4F2" stroke="#F1F2F5" stroke-width="0.3" stroke-linecap="round" stroke-linejoin="round"/>
<path d="M4.45946 6.72481C4.71321 6.72481 4.91892 6.4954 4.91892 6.21241C4.91892 5.92942 4.71321 5.70001 4.45946 5.70001C4.20571 5.70001 4 5.92942 4 6.21241C4 6.4954 4.20571 6.72481 4.45946 6.72481Z" fill="#DDE4F2" stroke="#F1F2F5" stroke-width="0.3" stroke-linecap="round" stroke-linejoin="round"/>
<path d="M8.75586 13.9012H13.1891" stroke="#DDE4F2" stroke-width="0.7" stroke-linecap="square" stroke-linejoin="round"/>
<rect x="0.35" y="0.35" width="16.3" height="18.3" stroke="#DDE4F2" stroke-width="0.7"/>
</svg>
