<svg width="39" height="17" viewBox="0 0 39 17" fill="none" xmlns="http://www.w3.org/2000/svg">
<path d="M15.966 4.004H22.994V5.852H18.164V8.162H22.35V9.87H18.164V14H15.966V4.004ZM26.0988 5.642H24.1108V4.004H26.0988V5.642ZM24.1108 6.762H26.0988V14H24.1108V6.762ZM27.7202 4.004H29.7082V14H27.7202V4.004ZM36.1456 9.604C36.0522 9.1 35.8842 8.71733 35.6416 8.456C35.4082 8.19467 35.0489 8.064 34.5636 8.064C34.2462 8.064 33.9802 8.12 33.7656 8.232C33.5602 8.33467 33.3922 8.46533 33.2616 8.624C33.1402 8.78267 33.0516 8.95067 32.9956 9.128C32.9489 9.30533 32.9209 9.464 32.9116 9.604H36.1456ZM32.9116 10.864C32.9396 11.508 33.1029 11.9747 33.4016 12.264C33.7002 12.5533 34.1296 12.698 34.6896 12.698C35.0909 12.698 35.4362 12.6 35.7256 12.404C36.0149 12.1987 36.1922 11.984 36.2576 11.76H38.0076C37.7276 12.628 37.2982 13.2487 36.7196 13.622C36.1409 13.9953 35.4409 14.182 34.6196 14.182C34.0502 14.182 33.5369 14.0933 33.0796 13.916C32.6222 13.7293 32.2349 13.468 31.9176 13.132C31.6002 12.796 31.3529 12.3947 31.1756 11.928C31.0076 11.4613 30.9236 10.948 30.9236 10.388C30.9236 9.84667 31.0122 9.34267 31.1896 8.876C31.3669 8.40933 31.6189 8.008 31.9456 7.672C32.2722 7.32667 32.6596 7.056 33.1076 6.86C33.5649 6.664 34.0689 6.566 34.6196 6.566C35.2356 6.566 35.7722 6.68733 36.2296 6.93C36.6869 7.16333 37.0602 7.48067 37.3496 7.882C37.6482 8.28333 37.8629 8.74067 37.9936 9.254C38.1242 9.76733 38.1709 10.304 38.1336 10.864H32.9116Z" fill="black"/>
<path d="M6.59038 2C6.91319 2.00007 7.22569 2.10753 7.47312 2.30355L7.5625 2.3809L10.5971 5.25C10.8254 5.46581 10.9661 5.75068 10.9945 6.0547L11 6.1691V13.7C11.0001 14.028 10.8691 14.3439 10.6332 14.5844C10.3973 14.8248 10.074 14.9722 9.72812 14.9967L9.625 15H1.375C1.0281 15.0001 0.693986 14.8762 0.439623 14.6532C0.185261 14.4302 0.0294549 14.1245 0.00343765 13.7975L6.89343e-08 13.7V3.3C-0.000109711 2.97203 0.130904 2.65613 0.366779 2.41564C0.602654 2.17516 0.925956 2.02785 1.27188 2.00325L1.375 2H6.59038ZM5.5 4.3C5.5 3.74771 5.05228 3.3 4.5 3.3H2.375C1.82272 3.3 1.375 3.74772 1.375 4.3V12.7C1.375 13.2523 1.82272 13.7 2.375 13.7H8.625C9.17728 13.7 9.625 13.2523 9.625 12.7V8.2C9.625 7.64772 9.17729 7.2 8.625 7.2H6.53125C6.25775 7.2 5.99544 7.09728 5.80205 6.91443C5.60865 6.73158 5.5 6.48359 5.5 6.225V4.3ZM5.5 8.175C5.68234 8.175 5.8572 8.24348 5.98614 8.36538C6.11507 8.48728 6.1875 8.65261 6.1875 8.825C6.1875 9.36348 6.62402 9.8 7.1625 9.8H7.21875C7.40109 9.8 7.57595 9.86848 7.70489 9.99038C7.83382 10.1123 7.90625 10.2776 7.90625 10.45C7.90625 10.6224 7.83382 10.7877 7.70489 10.9096C7.57595 11.0315 7.40109 11.1 7.21875 11.1H7.1625C6.62402 11.1 6.1875 11.5365 6.1875 12.075C6.1875 12.2474 6.11507 12.4127 5.98614 12.5346C5.8572 12.6565 5.68234 12.725 5.5 12.725C5.31766 12.725 5.1428 12.6565 5.01386 12.5346C4.88493 12.4127 4.8125 12.2474 4.8125 12.075C4.8125 11.5365 4.37598 11.1 3.8375 11.1H3.78125C3.59891 11.1 3.42405 11.0315 3.29511 10.9096C3.16618 10.7877 3.09375 10.6224 3.09375 10.45C3.09375 10.2776 3.16618 10.1123 3.29511 9.99038C3.42405 9.86848 3.59891 9.8 3.78125 9.8H3.8375C4.37598 9.8 4.8125 9.36348 4.8125 8.825C4.8125 8.65261 4.88493 8.48728 5.01386 8.36538C5.1428 8.24348 5.31766 8.175 5.5 8.175ZM8.05883 4.68836C7.61141 4.26534 6.875 4.58253 6.875 5.19827C6.875 5.58582 7.18918 5.9 7.57673 5.9C8.21144 5.9 8.52004 5.12441 8.05883 4.68836Z" fill="#09244B"/>
</svg>
