<svg width="23" height="20" viewBox="0 0 23 20" fill="none" xmlns="http://www.w3.org/2000/svg">
<path d="M8.3503 0.999877C8.58108 0.999858 8.80545 1.07652 8.98869 1.21799L9.09369 1.31011L10.3889 4.17635H11.935H18.8502C19.6537 4.1763 20.4268 4.48587 21.0113 5.04171C21.5959 5.59754 21.9478 6.35764 21.9949 7.16647L22.0002 7.35282V15.8234C22.0002 16.6336 21.6932 17.4132 21.142 18.0027C20.5908 18.5922 19.8371 18.9471 19.035 18.9946L18.8502 18.9999H4.15034C3.34688 18.9999 2.57376 18.6904 1.98919 18.1345C1.40461 17.5787 1.05276 16.8186 1.00562 16.0098L1.00037 15.8234V4.17635C1.00032 3.36612 0.973957 2.11878 1.52516 1.52929C2.07636 0.939793 3.16346 1.0527 3.96554 1.00517L4.15034 0.999877H8.3503Z" stroke="white" stroke-width="0.7" stroke-linecap="round" stroke-linejoin="round"/>
</svg>
