<svg width="62" height="17" viewBox="0 0 62 17" fill="none" xmlns="http://www.w3.org/2000/svg">
<path d="M19.966 4.004H26.994V5.852H22.164V8.162H26.35V9.87H22.164V14H19.966V4.004ZM29.8188 10.388C29.8188 10.6773 29.8468 10.962 29.9028 11.242C29.9588 11.5127 30.0522 11.76 30.1828 11.984C30.3228 12.1987 30.5048 12.3713 30.7288 12.502C30.9528 12.6327 31.2328 12.698 31.5688 12.698C31.9048 12.698 32.1848 12.6327 32.4088 12.502C32.6422 12.3713 32.8242 12.1987 32.9548 11.984C33.0948 11.76 33.1928 11.5127 33.2488 11.242C33.3048 10.962 33.3328 10.6773 33.3328 10.388C33.3328 10.0987 33.3048 9.814 33.2488 9.534C33.1928 9.254 33.0948 9.00667 32.9548 8.792C32.8242 8.57733 32.6422 8.40467 32.4088 8.274C32.1848 8.134 31.9048 8.064 31.5688 8.064C31.2328 8.064 30.9528 8.134 30.7288 8.274C30.5048 8.40467 30.3228 8.57733 30.1828 8.792C30.0522 9.00667 29.9588 9.254 29.9028 9.534C29.8468 9.814 29.8188 10.0987 29.8188 10.388ZM27.8308 10.388C27.8308 9.80933 27.9195 9.28667 28.0968 8.82C28.2742 8.344 28.5262 7.94267 28.8528 7.616C29.1795 7.28 29.5715 7.02333 30.0288 6.846C30.4862 6.65933 30.9995 6.566 31.5688 6.566C32.1382 6.566 32.6515 6.65933 33.1088 6.846C33.5755 7.02333 33.9722 7.28 34.2988 7.616C34.6255 7.94267 34.8775 8.344 35.0548 8.82C35.2322 9.28667 35.3208 9.80933 35.3208 10.388C35.3208 10.9667 35.2322 11.4893 35.0548 11.956C34.8775 12.4227 34.6255 12.824 34.2988 13.16C33.9722 13.4867 33.5755 13.7387 33.1088 13.916C32.6515 14.0933 32.1382 14.182 31.5688 14.182C30.9995 14.182 30.4862 14.0933 30.0288 13.916C29.5715 13.7387 29.1795 13.4867 28.8528 13.16C28.5262 12.824 28.2742 12.4227 28.0968 11.956C27.9195 11.4893 27.8308 10.9667 27.8308 10.388ZM36.6694 4.004H38.6574V14H36.6694V4.004ZM45.3608 10.36C45.3608 10.0613 45.3328 9.77667 45.2768 9.506C45.2208 9.226 45.1228 8.98333 44.9828 8.778C44.8521 8.56333 44.6795 8.39067 44.4648 8.26C44.2501 8.12933 43.9795 8.064 43.6528 8.064C43.3261 8.064 43.0508 8.12933 42.8268 8.26C42.6028 8.39067 42.4208 8.56333 42.2808 8.778C42.1501 8.99267 42.0521 9.24 41.9868 9.52C41.9308 9.79067 41.9028 10.0753 41.9028 10.374C41.9028 10.654 41.9355 10.934 42.0008 11.214C42.0661 11.494 42.1688 11.746 42.3088 11.97C42.4581 12.1847 42.6401 12.362 42.8548 12.502C43.0788 12.6327 43.3448 12.698 43.6528 12.698C43.9795 12.698 44.2501 12.6327 44.4648 12.502C44.6888 12.3713 44.8661 12.1987 44.9968 11.984C45.1275 11.76 45.2208 11.508 45.2768 11.228C45.3328 10.948 45.3608 10.6587 45.3608 10.36ZM45.3888 13.076H45.3608C45.1275 13.468 44.8195 13.7527 44.4368 13.93C44.0635 14.098 43.6388 14.182 43.1628 14.182C42.6215 14.182 42.1455 14.0793 41.7348 13.874C41.3241 13.6593 40.9835 13.3747 40.7128 13.02C40.4515 12.656 40.2508 12.2407 40.1108 11.774C39.9801 11.3073 39.9148 10.822 39.9148 10.318C39.9148 9.83267 39.9801 9.366 40.1108 8.918C40.2508 8.46067 40.4515 8.05933 40.7128 7.714C40.9835 7.36867 41.3195 7.09333 41.7208 6.888C42.1221 6.67333 42.5888 6.566 43.1208 6.566C43.5501 6.566 43.9561 6.65933 44.3388 6.846C44.7308 7.02333 45.0388 7.28933 45.2628 7.644H45.2908V4.004H47.2788V14H45.3888V13.076ZM53.6534 9.604C53.5601 9.1 53.3921 8.71733 53.1494 8.456C52.9161 8.19467 52.5567 8.064 52.0714 8.064C51.7541 8.064 51.4881 8.12 51.2734 8.232C51.0681 8.33467 50.9001 8.46533 50.7694 8.624C50.6481 8.78267 50.5594 8.95067 50.5034 9.128C50.4567 9.30533 50.4287 9.464 50.4194 9.604H53.6534ZM50.4194 10.864C50.4474 11.508 50.6107 11.9747 50.9094 12.264C51.2081 12.5533 51.6374 12.698 52.1974 12.698C52.5987 12.698 52.9441 12.6 53.2334 12.404C53.5227 12.1987 53.7001 11.984 53.7654 11.76H55.5154C55.2354 12.628 54.8061 13.2487 54.2274 13.622C53.6487 13.9953 52.9487 14.182 52.1274 14.182C51.5581 14.182 51.0447 14.0933 50.5874 13.916C50.1301 13.7293 49.7427 13.468 49.4254 13.132C49.1081 12.796 48.8607 12.3947 48.6834 11.928C48.5154 11.4613 48.4314 10.948 48.4314 10.388C48.4314 9.84667 48.5201 9.34267 48.6974 8.876C48.8747 8.40933 49.1267 8.008 49.4534 7.672C49.7801 7.32667 50.1674 7.056 50.6154 6.86C51.0727 6.664 51.5767 6.566 52.1274 6.566C52.7434 6.566 53.2801 6.68733 53.7374 6.93C54.1947 7.16333 54.5681 7.48067 54.8574 7.882C55.1561 8.28333 55.3707 8.74067 55.5014 9.254C55.6321 9.76733 55.6787 10.304 55.6414 10.864H50.4194ZM56.8205 6.762H58.7105V8.106H58.7385C58.8318 7.882 58.9578 7.67667 59.1165 7.49C59.2751 7.294 59.4571 7.13067 59.6625 7C59.8678 6.86 60.0871 6.75267 60.3205 6.678C60.5538 6.60333 60.7965 6.566 61.0485 6.566C61.1791 6.566 61.3238 6.58933 61.4825 6.636V8.484C61.3891 8.46533 61.2771 8.45133 61.1465 8.442C61.0158 8.42333 60.8898 8.414 60.7685 8.414C60.4045 8.414 60.0965 8.47467 59.8445 8.596C59.5925 8.71733 59.3871 8.88533 59.2285 9.1C59.0791 9.30533 58.9718 9.548 58.9065 9.828C58.8411 10.108 58.8085 10.4113 58.8085 10.738V14H56.8205V6.762Z" fill="black"/>
<path d="M5.264 2C5.47384 2.00003 5.68098 2.04872 5.87012 2.14248C6.05926 2.23624 6.22555 2.37266 6.3567 2.54167L7.3367 3.80556H12.6C12.9713 3.80556 13.3274 3.95774 13.5899 4.22862C13.8525 4.49951 14 4.86691 14 5.25V13.5556C14 13.9386 13.8525 14.306 13.5899 14.5769C13.3274 14.8478 12.9713 15 12.6 15H1.4C1.0287 15 0.672601 14.8478 0.41005 14.5769C0.1475 14.306 0 13.9386 0 13.5556V3.44444C0 3.06135 0.1475 2.69395 0.41005 2.42307C0.672601 2.15218 1.0287 2 1.4 2H5.264ZM5.264 3.44444H1.4V13.5556H12.6V5.25H7.336C7.12616 5.24997 6.91902 5.20128 6.72988 5.10752C6.54074 5.01376 6.37445 4.87734 6.2433 4.70833L5.264 3.44444ZM7 6.33333C7.18565 6.33333 7.3637 6.40942 7.49497 6.54487C7.62625 6.68031 7.7 6.86401 7.7 7.05556V8.5H9.1C9.28565 8.5 9.4637 8.57609 9.59497 8.71153C9.72625 8.84698 9.8 9.03068 9.8 9.22222C9.8 9.41377 9.72625 9.59747 9.59497 9.73291C9.4637 9.86835 9.28565 9.94444 9.1 9.94444H7.7V11.3889C7.7 11.5804 7.62625 11.7641 7.49497 11.8996C7.3637 12.035 7.18565 12.1111 7 12.1111C6.81435 12.1111 6.6363 12.035 6.50503 11.8996C6.37375 11.7641 6.3 11.5804 6.3 11.3889V9.94444H4.9C4.71435 9.94444 4.5363 9.86835 4.40503 9.73291C4.27375 9.59747 4.2 9.41377 4.2 9.22222C4.2 9.03068 4.27375 8.84698 4.40503 8.71153C4.5363 8.57609 4.71435 8.5 4.9 8.5H6.3V7.05556C6.3 6.86401 6.37375 6.68031 6.50503 6.54487C6.6363 6.40942 6.81435 6.33333 7 6.33333Z" fill="#09244B"/>
</svg>
