<svg width="60" height="17" viewBox="0 0 60 17" fill="none" xmlns="http://www.w3.org/2000/svg">
<path d="M23.164 8.708H24.872C25.124 8.708 25.3667 8.68933 25.6 8.652C25.8333 8.61467 26.0387 8.54467 26.216 8.442C26.3933 8.33 26.5333 8.176 26.636 7.98C26.748 7.784 26.804 7.52733 26.804 7.21C26.804 6.89267 26.748 6.636 26.636 6.44C26.5333 6.244 26.3933 6.09467 26.216 5.992C26.0387 5.88 25.8333 5.80533 25.6 5.768C25.3667 5.73067 25.124 5.712 24.872 5.712H23.164V8.708ZM20.966 4.004H25.474C26.0993 4.004 26.6313 4.09733 27.07 4.284C27.5087 4.46133 27.8633 4.69933 28.134 4.998C28.414 5.29667 28.6147 5.63733 28.736 6.02C28.8667 6.40267 28.932 6.79933 28.932 7.21C28.932 7.61133 28.8667 8.008 28.736 8.4C28.6147 8.78267 28.414 9.12333 28.134 9.422C27.8633 9.72067 27.5087 9.96333 27.07 10.15C26.6313 10.3273 26.0993 10.416 25.474 10.416H23.164V14H20.966V4.004ZM30.0939 4.004H32.0819V7.77H32.1239C32.3759 7.35 32.6979 7.04667 33.0899 6.86C33.4819 6.664 33.8646 6.566 34.2379 6.566C34.7699 6.566 35.2039 6.64067 35.5399 6.79C35.8852 6.93 36.1559 7.13067 36.3519 7.392C36.5479 7.644 36.6832 7.95667 36.7579 8.33C36.8419 8.694 36.8839 9.1 36.8839 9.548V14H34.8959V9.912C34.8959 9.31467 34.8026 8.87133 34.6159 8.582C34.4292 8.28333 34.0979 8.134 33.6219 8.134C33.0806 8.134 32.6886 8.29733 32.4459 8.624C32.2032 8.94133 32.0819 9.46867 32.0819 10.206V14H30.0939V4.004ZM40.1567 10.388C40.1567 10.6773 40.1847 10.962 40.2407 11.242C40.2967 11.5127 40.3901 11.76 40.5207 11.984C40.6607 12.1987 40.8427 12.3713 41.0667 12.502C41.2907 12.6327 41.5707 12.698 41.9067 12.698C42.2427 12.698 42.5227 12.6327 42.7467 12.502C42.9801 12.3713 43.1621 12.1987 43.2927 11.984C43.4327 11.76 43.5307 11.5127 43.5867 11.242C43.6427 10.962 43.6707 10.6773 43.6707 10.388C43.6707 10.0987 43.6427 9.814 43.5867 9.534C43.5307 9.254 43.4327 9.00667 43.2927 8.792C43.1621 8.57733 42.9801 8.40467 42.7467 8.274C42.5227 8.134 42.2427 8.064 41.9067 8.064C41.5707 8.064 41.2907 8.134 41.0667 8.274C40.8427 8.40467 40.6607 8.57733 40.5207 8.792C40.3901 9.00667 40.2967 9.254 40.2407 9.534C40.1847 9.814 40.1567 10.0987 40.1567 10.388ZM38.1687 10.388C38.1687 9.80933 38.2574 9.28667 38.4347 8.82C38.6121 8.344 38.8641 7.94267 39.1907 7.616C39.5174 7.28 39.9094 7.02333 40.3667 6.846C40.8241 6.65933 41.3374 6.566 41.9067 6.566C42.4761 6.566 42.9894 6.65933 43.4467 6.846C43.9134 7.02333 44.3101 7.28 44.6367 7.616C44.9634 7.94267 45.2154 8.344 45.3927 8.82C45.5701 9.28667 45.6587 9.80933 45.6587 10.388C45.6587 10.9667 45.5701 11.4893 45.3927 11.956C45.2154 12.4227 44.9634 12.824 44.6367 13.16C44.3101 13.4867 43.9134 13.7387 43.4467 13.916C42.9894 14.0933 42.4761 14.182 41.9067 14.182C41.3374 14.182 40.8241 14.0933 40.3667 13.916C39.9094 13.7387 39.5174 13.4867 39.1907 13.16C38.8641 12.824 38.6121 12.4227 38.4347 11.956C38.2574 11.4893 38.1687 10.9667 38.1687 10.388ZM49.4713 6.762H50.9273V8.092H49.4713V11.676C49.4713 12.012 49.5273 12.236 49.6393 12.348C49.7513 12.46 49.9753 12.516 50.3113 12.516C50.4233 12.516 50.5306 12.5113 50.6333 12.502C50.736 12.4927 50.834 12.4787 50.9273 12.46V14C50.7593 14.028 50.5726 14.0467 50.3673 14.056C50.162 14.0653 49.9613 14.07 49.7653 14.07C49.4573 14.07 49.1633 14.0467 48.8833 14C48.6126 13.9627 48.37 13.8833 48.1553 13.762C47.95 13.6407 47.7866 13.468 47.6653 13.244C47.544 13.02 47.4833 12.726 47.4833 12.362V8.092H46.2793V6.762H47.4833V4.592H49.4713V6.762ZM53.6372 10.388C53.6372 10.6773 53.6652 10.962 53.7212 11.242C53.7772 11.5127 53.8705 11.76 54.0012 11.984C54.1412 12.1987 54.3232 12.3713 54.5472 12.502C54.7712 12.6327 55.0512 12.698 55.3872 12.698C55.7232 12.698 56.0032 12.6327 56.2272 12.502C56.4605 12.3713 56.6425 12.1987 56.7732 11.984C56.9132 11.76 57.0112 11.5127 57.0672 11.242C57.1232 10.962 57.1512 10.6773 57.1512 10.388C57.1512 10.0987 57.1232 9.814 57.0672 9.534C57.0112 9.254 56.9132 9.00667 56.7732 8.792C56.6425 8.57733 56.4605 8.40467 56.2272 8.274C56.0032 8.134 55.7232 8.064 55.3872 8.064C55.0512 8.064 54.7712 8.134 54.5472 8.274C54.3232 8.40467 54.1412 8.57733 54.0012 8.792C53.8705 9.00667 53.7772 9.254 53.7212 9.534C53.6652 9.814 53.6372 10.0987 53.6372 10.388ZM51.6492 10.388C51.6492 9.80933 51.7379 9.28667 51.9152 8.82C52.0925 8.344 52.3445 7.94267 52.6712 7.616C52.9979 7.28 53.3899 7.02333 53.8472 6.846C54.3045 6.65933 54.8179 6.566 55.3872 6.566C55.9565 6.566 56.4699 6.65933 56.9272 6.846C57.3939 7.02333 57.7905 7.28 58.1172 7.616C58.4439 7.94267 58.6959 8.344 58.8732 8.82C59.0505 9.28667 59.1392 9.80933 59.1392 10.388C59.1392 10.9667 59.0505 11.4893 58.8732 11.956C58.6959 12.4227 58.4439 12.824 58.1172 13.16C57.7905 13.4867 57.3939 13.7387 56.9272 13.916C56.4699 14.0933 55.9565 14.182 55.3872 14.182C54.8179 14.182 54.3045 14.0933 53.8472 13.916C53.3899 13.7387 52.9979 13.4867 52.6712 13.16C52.3445 12.824 52.0925 12.4227 51.9152 11.956C51.7379 11.4893 51.6492 10.9667 51.6492 10.388Z" fill="black"/>
<path fill-rule="evenodd" clip-rule="evenodd" d="M12.6663 2.68433C13.0199 2.68433 13.3591 2.8285 13.6091 3.08513C13.8592 3.34176 13.9997 3.68982 13.9997 4.05275V13.6317C13.9997 13.9946 13.8592 14.3427 13.6091 14.5993C13.3591 14.8559 13.0199 15.0001 12.6663 15.0001H1.99938C1.64575 15.0001 1.3066 14.8559 1.05655 14.5993C0.806495 14.3427 0.666016 13.9946 0.666016 13.6317V9.52643C0.666016 9.34497 0.736255 9.17094 0.861282 9.04262C0.986309 8.91431 1.15588 8.84222 1.3327 8.84222C1.50951 8.84222 1.67909 8.91431 1.80411 9.04262C1.92914 9.17094 1.99938 9.34497 1.99938 9.52643V10.9633L5.32945 7.54633C5.40684 7.46688 5.49872 7.40387 5.59984 7.36087C5.70096 7.31788 5.80935 7.29575 5.9188 7.29575C6.02826 7.29575 6.13664 7.31788 6.23776 7.36087C6.33888 7.40387 6.43076 7.46688 6.50815 7.54633L9.21821 10.3283L10.0436 9.48127C10.1209 9.40183 10.2128 9.33881 10.3139 9.29582C10.4151 9.25282 10.5235 9.23069 10.6329 9.23069C10.7424 9.23069 10.8507 9.25282 10.9519 9.29582C11.053 9.33881 11.1449 9.40183 11.2223 9.48127L12.6663 10.964V4.05275H7.33283C7.15602 4.05275 6.98645 3.98066 6.86142 3.85235C6.73639 3.72403 6.66615 3.55 6.66615 3.36854C6.66615 3.18707 6.73639 3.01304 6.86142 2.88473C6.98645 2.75641 7.15602 2.68433 7.33283 2.68433H12.6663ZM5.9188 8.87643L1.99938 12.8996V13.6317H12.6663V12.8989L10.6329 10.8121L10.1616 11.2958L10.2996 11.4374C10.421 11.5665 10.4882 11.7393 10.4867 11.9187C10.4852 12.0981 10.4151 12.2697 10.2914 12.3966C10.1678 12.5234 10.0006 12.5954 9.82582 12.5969C9.65102 12.5985 9.48262 12.5295 9.35688 12.4049L5.9188 8.87643ZM9.66622 5.42117C9.93144 5.42117 10.1858 5.5293 10.3733 5.72177C10.5609 5.91424 10.6662 6.17529 10.6662 6.44748C10.6662 6.71968 10.5609 6.98073 10.3733 7.1732C10.1858 7.36567 9.93144 7.4738 9.66622 7.4738C9.401 7.4738 9.14664 7.36567 8.9591 7.1732C8.77156 6.98073 8.6662 6.71968 8.6662 6.44748C8.6662 6.17529 8.77156 5.91424 8.9591 5.72177C9.14664 5.5293 9.401 5.42117 9.66622 5.42117Z" fill="#09244B"/>
<path fill-rule="evenodd" clip-rule="evenodd" d="M2 2.66667C2 2.48986 2.07024 2.32029 2.19526 2.19526C2.32029 2.07024 2.48986 2 2.66667 2H3.33333C3.51014 2 3.67971 2.07024 3.80474 2.19526C3.92976 2.32029 4 2.48986 4 2.66667V4H5.33333C5.51014 4 5.67971 4.07024 5.80474 4.19526C5.92976 4.32029 6 4.48986 6 4.66667V5.33333C6 5.51014 5.92976 5.67971 5.80474 5.80474C5.67971 5.92976 5.51014 6 5.33333 6H4V7.33333C4 7.51014 3.92976 7.67971 3.80474 7.80474C3.67971 7.92976 3.51014 8 3.33333 8H2.66667C2.48986 8 2.32029 7.92976 2.19526 7.80474C2.07024 7.67971 2 7.51014 2 7.33333V6H0.666667C0.489856 6 0.320286 5.92976 0.195262 5.80474C0.0702379 5.67971 0 5.51014 0 5.33333V4.66667C0 4.48986 0.0702379 4.32029 0.195262 4.19526C0.320286 4.07024 0.489856 4 0.666667 4H2V2.66667Z" fill="#09244B"/>
</svg>
