<?xml version="1.0" standalone="no"?>
<!DOCTYPE svg PUBLIC "-//W3C//DTD SVG 20010904//EN"
 "http://www.w3.org/TR/2001/REC-SVG-20010904/DTD/svg10.dtd">
<svg version="1.0" xmlns="http://www.w3.org/2000/svg"
 width="640.000000pt" height="427.000000pt" viewBox="0 0 640.000000 427.000000"
 preserveAspectRatio="xMidYMid meet">

<g transform="translate(0.000000,427.000000) scale(0.100000,-0.100000)"
fill="#000000" stroke="none">
<path d="M0 2135 l0 -2134 650 0 c499 0 649 3 644 12 -5 8 -3 8 7 0 18 -18
225 -18 232 0 4 9 6 9 6 0 1 -10 494 -13 2431 -13 l2430 0 0 2135 0 2135
-3200 0 -3200 0 0 -2135z m4590 1620 c115 -15 254 -85 330 -166 35 -38 43 -50
68 -109 6 -14 17 -41 26 -60 8 -19 20 -55 26 -80 36 -138 6 -169 -166 -171
-38 -1 -73 -4 -79 -9 -16 -12 -168 -60 -191 -60 -11 0 -24 -3 -28 -7 -3 -4
-14 -8 -23 -9 -9 -2 -20 -10 -25 -18 -5 -9 -15 -16 -22 -16 -8 0 -27 -7 -42
-15 -16 -8 -46 -15 -66 -15 -44 0 -63 -23 -74 -88 -4 -23 -11 -45 -15 -48 -13
-8 -10 -147 5 -249 12 -78 12 -96 -1 -135 -23 -69 -38 -86 -89 -104 -90 -30
-134 -17 -257 75 -62 47 -157 160 -157 188 0 6 -11 28 -24 49 -14 20 -37 75
-53 122 -24 75 -28 100 -28 215 0 151 19 229 82 333 135 222 355 361 606 382
91 7 109 7 197 -5z m-2535 -689 c50 -8 115 -23 146 -35 69 -26 217 -119 241
-152 10 -13 29 -80 43 -149 14 -68 30 -127 35 -130 5 -3 13 -20 16 -38 6 -29
4 -32 -12 -26 -11 3 -33 22 -49 40 l-30 35 -40 -37 c-91 -83 -207 -142 -325
-164 -36 -7 -89 -23 -118 -36 -29 -13 -57 -24 -62 -24 -5 0 -7 -13 -4 -30 8
-37 -5 -54 -68 -86 -26 -13 -48 -30 -48 -37 0 -7 -16 -29 -36 -48 -19 -18 -47
-55 -61 -81 -15 -27 -33 -48 -42 -49 -9 0 22 -9 69 -20 128 -28 241 -88 320
-169 36 -36 74 -82 85 -100 l19 -35 -24 16 -25 16 0 -71 c-1 -85 -14 -114 -87
-186 -106 -105 -288 -167 -501 -171 -84 -1 -85 -2 -77 -24 5 -12 4 -28 -1 -36
-5 -8 -9 -10 -9 -6 0 14 -27 -18 -34 -40 -5 -15 -12 -20 -23 -16 -13 5 -15 1
-10 -23 3 -16 4 -23 1 -17 -7 16 -34 -8 -34 -30 0 -10 -7 -13 -20 -10 -11 3
-20 0 -20 -6 0 -6 4 -11 9 -11 6 0 6 -12 1 -30 -5 -19 -3 -63 7 -122 20 -125
15 -238 -13 -275 -28 -37 -56 -40 -109 -8 -94 55 -209 236 -275 432 -52 156
-68 272 -50 361 47 239 209 425 453 522 44 17 55 25 47 35 -22 26 -50 152 -70
312 -37 290 -12 400 121 533 124 124 291 208 459 229 95 12 106 12 205 -3z
m1445 -562 c41 -14 107 -42 145 -62 70 -37 185 -138 185 -164 -1 -9 -4 -9 -13
3 -19 26 -37 -1 -30 -45 15 -91 -70 -198 -209 -264 -105 -51 -161 -62 -302
-62 -115 0 -151 -10 -144 -40 2 -8 11 -20 21 -25 16 -10 16 -13 2 -30 -10 -14
-13 -15 -9 -4 3 10 -1 19 -11 23 -12 4 -18 0 -22 -13 -5 -21 -7 -20 -48 17
-11 10 -15 9 -23 -3 -7 -13 -14 -14 -36 -5 -15 5 -25 6 -22 2 2 -4 -16 -8 -41
-9 -64 -2 -145 -30 -186 -64 -56 -46 -80 -109 -81 -210 -1 -48 -4 -85 -8 -82
-5 2 -8 14 -8 26 -1 12 -9 40 -20 62 -27 56 -27 227 0 368 35 179 104 356 170
430 37 42 168 119 249 147 136 46 311 47 441 4z m-2185 -1452 c0 -18 -20 -15
-23 4 -3 10 1 15 10 12 7 -3 13 -10 13 -16z m-928 -584 c-3 -8 -6 -5 -6 6 -1
11 2 17 5 13 3 -3 4 -12 1 -19z m4938 -18 c3 -5 1 -10 -4 -10 -6 0 -11 5 -11
10 0 6 2 10 4 10 3 0 8 -4 11 -10z m-4740 -29 c3 -5 2 -12 -3 -15 -5 -3 -9 1
-9 9 0 17 3 19 12 6z m147 -23 c-8 -8 -9 -4 -5 13 4 13 8 18 11 10 2 -7 -1
-18 -6 -23z m293 22 c3 -5 1 -10 -4 -10 -6 0 -11 5 -11 10 0 6 2 10 4 10 3 0
8 -4 11 -10z m28 -45 c-7 -21 -12 -19 -10 4 0 11 5 18 9 15 4 -3 5 -11 1 -19z
m268 2 c-10 -9 -11 -8 -5 6 3 10 9 15 12 12 3 -3 0 -11 -7 -18z m3109 3 c0 -5
-4 -10 -10 -10 -5 0 -10 5 -10 10 0 6 5 10 10 10 6 0 10 -4 10 -10z m-3424
-45 c-1 -8 -5 -17 -8 -21 -5 -4 -4 16 1 34 3 9 9 -1 7 -13z m3418 0 c-4 -8 -8
-15 -10 -15 -2 0 -4 7 -4 15 0 8 4 15 10 15 5 0 7 -7 4 -15z m-3071 -40 c-3
-9 -8 -14 -10 -11 -3 3 -2 9 2 15 9 16 15 13 8 -4z m41 -1 c3 -8 2 -12 -4 -9
-6 3 -10 10 -10 16 0 14 7 11 14 -7z m3116 12 c0 -2 -7 -7 -16 -10 -8 -3 -12
-2 -9 4 6 10 25 14 25 6z m-3400 -41 c-5 -13 -7 -33 -5 -45 2 -11 0 -18 -4
-16 -7 5 -8 61 -1 76 1 3 2 9 1 13 -1 5 3 6 8 2 7 -3 7 -15 1 -30z m204 19 c3
-8 2 -12 -4 -9 -6 3 -10 10 -10 16 0 14 7 11 14 -7z m-989 -3 c3 -5 2 -12 -3
-15 -5 -3 -9 1 -9 9 0 17 3 19 12 6z m709 -15 c-3 -9 -10 -16 -15 -16 -5 0 -4
9 3 20 14 22 21 20 12 -4z m-594 4 c0 -5 -2 -10 -4 -10 -3 0 -8 5 -11 10 -3 6
-1 10 4 10 6 0 11 -4 11 -10z m714 -6 c3 -8 2 -12 -4 -9 -6 3 -10 10 -10 16 0
14 7 11 14 -7z m-549 -4 c3 -5 2 -10 -4 -10 -5 0 -13 5 -16 10 -3 6 -2 10 4
10 5 0 13 -4 16 -10z m665 0 c0 -5 -5 -10 -11 -10 -5 0 -7 5 -4 10 3 6 8 10
11 10 2 0 4 -4 4 -10z m117 -15 c0 -8 -4 -15 -9 -15 -10 0 -11 14 -1 23 9 10
10 9 10 -8z m4078 -5 c3 -6 -1 -7 -9 -4 -18 7 -21 14 -7 14 6 0 13 -4 16 -10z
m280 -9 c3 -5 2 -12 -3 -15 -5 -3 -9 1 -9 9 0 17 3 19 12 6z m-5715 -11 c0 -5
-2 -10 -4 -10 -3 0 -8 5 -11 10 -3 6 -1 10 4 10 6 0 11 -4 11 -10z m1354 -16
c3 -8 2 -12 -4 -9 -6 3 -10 10 -10 16 0 14 7 11 14 -7z m-478 -14 c0 -12 -4
-16 -9 -11 -5 5 -6 14 -3 20 10 15 12 14 12 -9z m394 10 c0 -5 -2 -10 -4 -10
-3 0 -8 5 -11 10 -3 6 -1 10 4 10 6 0 11 -4 11 -10z m-160 -20 c0 -5 -2 -10
-4 -10 -3 0 -8 5 -11 10 -3 6 -1 10 4 10 6 0 11 -4 11 -10z m-85 -9 c3 -5 2
-12 -3 -15 -5 -3 -9 1 -9 9 0 17 3 19 12 6z m158 -5 c4 -10 1 -13 -8 -9 -8 3
-12 9 -9 14 7 12 11 11 17 -5z m-915 -40 c-7 -8 -15 -12 -17 -11 -5 6 10 25
20 25 5 0 4 -6 -3 -14z m439 -11 c0 -8 -4 -15 -9 -15 -10 0 -11 14 -1 23 9 10
10 9 10 -8z m468 -5 c3 -5 1 -10 -4 -10 -6 0 -11 5 -11 10 0 6 2 10 4 10 3 0
8 -4 11 -10z m275 0 c0 -5 -2 -10 -4 -10 -3 0 -8 5 -11 10 -3 6 -1 10 4 10 6
0 11 -4 11 -10z m-36 -25 c-4 -8 -11 -12 -17 -8 -8 5 -7 8 1 11 7 2 9 9 6 14
-4 7 -2 8 4 4 6 -4 9 -13 6 -21z m-1311 8 c3 -5 -1 -14 -8 -20 -11 -10 -13 -9
-12 7 1 20 12 26 20 13z m357 -13 c0 -5 -2 -10 -4 -10 -3 0 -8 5 -11 10 -3 6
-1 10 4 10 6 0 11 -4 11 -10z"/>
<path d="M4463 3663 c-19 -7 -16 -41 5 -52 25 -13 44 1 40 30 -3 24 -21 32
-45 22z"/>
<path d="M4590 3540 c-23 -14 1 -44 38 -48 23 -2 32 2 37 17 3 12 3 25 0 31
-8 13 -55 13 -75 0z"/>
<path d="M4128 3489 c-27 -15 -22 -47 7 -55 49 -12 86 26 50 52 -22 16 -34 17
-57 3z"/>
<path d="M4753 3433 c-45 -9 -35 -63 12 -63 38 0 55 11 55 35 0 20 -20 37 -38
34 -4 -1 -17 -4 -29 -6z"/>
<path d="M4262 3379 c-17 -6 -22 -15 -20 -31 3 -20 9 -23 47 -23 54 0 79 27
47 51 -22 16 -41 17 -74 3z"/>
<path d="M4396 3257 c-26 -19 -16 -49 17 -58 57 -15 111 29 72 57 -24 18 -66
18 -89 1z"/>
<path d="M3874 3096 c-9 -23 15 -56 40 -56 30 0 39 22 20 49 -17 24 -52 28
-60 7z"/>
<path d="M4144 2885 c-8 -33 8 -69 39 -90 53 -35 75 15 34 76 -29 44 -64 50
-73 14z"/>
<path d="M3860 2731 c0 -6 5 -13 10 -16 6 -3 10 1 10 9 0 9 -4 16 -10 16 -5 0
-10 -4 -10 -9z"/>
<path d="M4137 2563 c-11 -10 -8 -49 4 -77 20 -42 79 -40 79 3 0 46 -59 99
-83 74z"/>
<path d="M2083 2938 c-52 -25 -10 -75 54 -63 43 8 54 32 24 57 -26 20 -45 22
-78 6z"/>
<path d="M1843 2893 c-33 -13 6 -63 49 -63 54 0 76 28 46 58 -12 12 -71 15
-95 5z"/>
<path d="M1612 2848 c-31 -31 5 -61 65 -56 46 4 67 33 39 54 -24 17 -87 19
-104 2z"/>
<path d="M2198 2678 c-32 -11 -36 -37 -10 -61 33 -30 122 -16 122 18 0 17 -48
55 -69 54 -9 0 -28 -5 -43 -11z"/>
<path d="M1955 2624 c-14 -14 -14 -19 -2 -37 17 -26 53 -36 93 -25 41 10 49
33 22 58 -27 25 -90 27 -113 4z"/>
<path d="M1724 2586 c-24 -18 -11 -44 31 -65 36 -18 105 0 105 28 0 45 -91 70
-136 37z"/>
<path d="M1613 1931 c-27 -7 -63 -37 -63 -51 0 -6 11 -22 25 -35 33 -33 93
-34 131 -2 20 18 25 29 20 45 -11 34 -69 56 -113 43z"/>
<path d="M1166 1759 c-14 -11 -26 -27 -26 -34 0 -24 51 -55 90 -55 40 0 90 31
90 56 0 51 -103 73 -154 33z"/>
<path d="M1500 1713 c-25 -13 -36 -26 -38 -46 -3 -23 2 -30 32 -42 45 -19 70
-19 106 0 32 17 40 49 18 77 -20 26 -78 31 -118 11z"/>
<path d="M1809 1655 c-78 -42 -11 -120 82 -95 49 14 65 41 44 74 -25 37 -79
46 -126 21z"/>
<path d="M1392 1494 c-35 -24 -29 -62 12 -79 41 -17 86 -11 115 17 26 24 26
33 1 58 -25 25 -95 27 -128 4z"/>
<path d="M917 1446 c-14 -37 50 -175 74 -161 25 16 -7 121 -48 158 -18 15 -21
16 -26 3z"/>
<path d="M920 1263 c1 -26 32 -105 52 -133 27 -37 43 -14 28 41 -19 69 -81
141 -80 92z"/>
<path d="M1125 1180 c-15 -25 32 -143 62 -154 35 -14 22 79 -19 137 -21 29
-33 34 -43 17z"/>
<path d="M936 1063 c7 -42 38 -108 54 -118 33 -21 17 81 -21 129 -29 37 -41
33 -33 -11z"/>
<path d="M1130 997 c0 -37 28 -108 52 -134 19 -20 23 -21 30 -8 12 20 -6 83
-34 125 -29 43 -48 49 -48 17z"/>
<path d="M1140 808 c0 -38 29 -107 53 -127 38 -31 34 62 -6 120 -31 46 -47 48
-47 7z"/>
<path d="M3519 2357 c-34 -17 -36 -52 -5 -72 48 -32 136 -15 136 25 0 38 -86
69 -131 47z"/>
<path d="M3220 2260 c-28 -28 -25 -47 12 -70 50 -30 138 -5 138 40 0 45 -113
67 -150 30z"/>
<path d="M2980 2192 c-54 -8 -77 -57 -43 -90 24 -24 104 -23 132 2 12 11 21
24 21 31 0 35 -58 65 -110 57z"/>
<path d="M3067 1914 c-3 -3 -3 -12 0 -20 3 -8 0 -14 -6 -14 -6 0 -11 5 -11 10
0 6 -5 10 -11 10 -8 0 -8 -5 1 -15 17 -20 27 -19 40 4 9 19 0 37 -13 25z"/>
<path d="M3105 1900 c-3 -5 1 -10 10 -10 9 0 13 5 10 10 -3 6 -8 10 -10 10 -2
0 -7 -4 -10 -10z"/>
<path d="M3106 1865 c4 -8 1 -15 -5 -15 -6 0 -11 5 -11 12 0 9 -3 9 -12 0 -10
-10 -10 -15 2 -22 8 -5 20 -8 25 -7 14 5 19 47 6 47 -6 0 -8 -7 -5 -15z"/>
</g>
</svg>
