<svg width="18" height="17" viewBox="0 0 18 17" fill="none" xmlns="http://www.w3.org/2000/svg">
<path d="M8.57324 1C12.7402 1 16.1463 4.27248 16.1465 8.34375C16.1465 10.1946 15.4405 11.8786 14.2812 13.167L16.8877 15.6895C17.0861 15.8815 17.0914 16.198 16.8994 16.3965C16.7074 16.5947 16.3908 16.6001 16.1924 16.4082L13.5635 13.8652C12.2284 15.0003 10.4814 15.6885 8.57324 15.6885C4.40631 15.6883 1 12.4151 1 8.34375C1.00019 4.27256 4.40643 1.00013 8.57324 1ZM8.57324 2C4.92739 2.00013 2.0002 4.85566 2 8.34375C2 11.832 4.92727 14.6883 8.57324 14.6885C12.2193 14.6885 15.1465 11.8321 15.1465 8.34375C15.1463 4.85558 12.2192 2 8.57324 2Z" fill="black" fill-opacity="0.6"/>
<path d="M8.57324 1V0.75H8.57323L8.57324 1ZM16.1465 8.34375H16.3965V8.34374L16.1465 8.34375ZM14.2812 13.167L14.0954 12.9998C14.0054 13.0998 14.0107 13.2531 14.1074 13.3466L14.2812 13.167ZM16.8877 15.6895L16.7138 15.8691L16.7138 15.8691L16.8877 15.6895ZM16.8994 16.3965L17.079 16.5704L17.0791 16.5703L16.8994 16.3965ZM16.1924 16.4082L16.3662 16.2285L16.3662 16.2285L16.1924 16.4082ZM13.5635 13.8652L13.7373 13.6855C13.6448 13.5961 13.4996 13.5914 13.4015 13.6748L13.5635 13.8652ZM8.57324 15.6885L8.57323 15.9385H8.57324V15.6885ZM1 8.34375L0.75 8.34374V8.34375H1ZM8.57324 2V1.75H8.57323L8.57324 2ZM2 8.34375L1.75 8.34374V8.34375H2ZM8.57324 14.6885L8.57323 14.9385H8.57324V14.6885ZM15.1465 8.34375H15.3965V8.34374L15.1465 8.34375ZM8.57324 1V1.25C12.6101 1.25 15.8963 4.41841 15.8965 8.34376L16.1465 8.34375L16.3965 8.34374C16.3963 4.12656 12.8703 0.75 8.57324 0.75V1ZM16.1465 8.34375H15.8965C15.8965 10.1293 15.2158 11.7546 14.0954 12.9998L14.2812 13.167L14.4671 13.3342C15.6653 12.0026 16.3965 10.2598 16.3965 8.34375H16.1465ZM14.2812 13.167L14.1074 13.3466L16.7138 15.8691L16.8877 15.6895L17.0616 15.5098L14.4551 12.9873L14.2812 13.167ZM16.8877 15.6895L16.7138 15.8691C16.8131 15.9652 16.8157 16.1235 16.7197 16.2226L16.8994 16.3965L17.0791 16.5703C17.3672 16.2726 17.3591 15.7978 17.0616 15.5098L16.8877 15.6895ZM16.8994 16.3965L16.7198 16.2225C16.6237 16.3218 16.4652 16.3243 16.3662 16.2285L16.1924 16.4082L16.0186 16.5879C16.3163 16.8759 16.7911 16.8676 17.079 16.5704L16.8994 16.3965ZM16.1924 16.4082L16.3662 16.2285L13.7373 13.6855L13.5635 13.8652L13.3897 14.0449L16.0186 16.5879L16.1924 16.4082ZM13.5635 13.8652L13.4015 13.6748C12.1105 14.7724 10.4205 15.4385 8.57324 15.4385V15.6885V15.9385C10.5423 15.9385 12.3464 15.2281 13.7254 14.0557L13.5635 13.8652ZM8.57324 15.6885L8.57325 15.4385C4.53642 15.4384 1.25 12.2692 1.25 8.34375H1H0.75C0.75 12.561 4.2762 15.9383 8.57323 15.9385L8.57324 15.6885ZM1 8.34375L1.25 8.34376C1.25019 4.4185 4.53651 1.25013 8.57325 1.25L8.57324 1L8.57323 0.75C4.27635 0.750134 0.750202 4.12663 0.75 8.34374L1 8.34375ZM8.57324 2L8.57323 1.75C4.79696 1.75013 1.7502 4.71006 1.75 8.34374L2 8.34375L2.25 8.34376C2.25019 5.00126 5.05781 2.25012 8.57325 2.25L8.57324 2ZM2 8.34375H1.75C1.75 11.9776 4.79681 14.9383 8.57323 14.9385L8.57324 14.6885L8.57325 14.4385C5.05773 14.4384 2.25 11.6864 2.25 8.34375H2ZM8.57324 14.6885V14.9385C12.3498 14.9385 15.3965 11.9776 15.3965 8.34375H15.1465H14.8965C14.8965 11.6865 12.0889 14.4385 8.57324 14.4385V14.6885ZM15.1465 8.34375L15.3965 8.34374C15.3963 4.70999 12.3496 1.75 8.57324 1.75V2V2.25C12.0888 2.25 14.8963 5.00117 14.8965 8.34376L15.1465 8.34375Z" fill="black" fill-opacity="0.6"/>
</svg>
