<?xml version="1.0" encoding="UTF-8"?>
<svg version="1.1" xmlns="http://www.w3.org/2000/svg" width="225" height="225">
<path d="M0 0 C74.25 0 148.5 0 225 0 C225 74.25 225 148.5 225 225 C150.75 225 76.5 225 0 225 C0 150.75 0 76.5 0 0 Z " fill="#000000" transform="translate(0,0)"/>
<path d="M0 0 C74.25 0 148.5 0 225 0 C225 74.25 225 148.5 225 225 C150.75 225 76.5 225 0 225 C0 150.75 0 76.5 0 0 Z M68 24 C67.05640625 24.46277344 66.1128125 24.92554688 65.140625 25.40234375 C41.4366154 37.48871023 24.96997413 59.97419678 16.82421875 84.890625 C11.6385786 104.4535139 11.68491179 126.01948559 19 145 C19.40734375 146.11117187 19.8146875 147.22234375 20.234375 148.3671875 C30.5450208 174.67941997 50.30636158 193.72416325 76 205 C97.74210708 213.49508457 123.11170016 214.43574841 145 206 C146.66675781 205.38898438 146.66675781 205.38898438 148.3671875 204.765625 C172.67519064 195.2403515 191.83678608 177.38911591 202.67724609 153.60253906 C205.30979332 147.5625227 207.30626743 141.36554469 209 135 C209.35707031 133.84242188 209.71414062 132.68484375 210.08203125 131.4921875 C215.25796015 110.43108037 210.85520157 86.87061152 201 68 C200.53722656 67.05640625 200.07445312 66.1128125 199.59765625 65.140625 C188.21918223 42.82494742 167.77212481 26.94520301 144.44140625 18.75 C141.30659872 17.76425705 138.17547954 16.84492583 135 16 C133.84242188 15.64292969 132.68484375 15.28585937 131.4921875 14.91796875 C110.43108037 9.74203985 86.87061152 14.14479843 68 24 Z " fill="#FDFDFD" transform="translate(0,0)"/>
<path d="M0 0 C2.8985621 0.95002322 5.27286228 2.17093375 7.90307617 3.71728516 C9.4402832 4.61314331 9.4402832 4.61314331 11.00854492 5.52709961 C12.10424805 6.17509521 13.19995117 6.82309082 14.32885742 7.49072266 C16.06011219 8.50345253 17.79137497 9.51616899 19.52310181 10.52809143 C20.72237159 11.22947708 21.92107462 11.93183262 23.11923218 12.63511658 C27.4202223 15.1590739 31.7383554 17.65149182 36.06713867 20.12744141 C37.26481899 20.81346297 38.46249163 21.49949792 39.66015625 22.18554688 C41.95174351 23.49793212 44.24477572 24.80768255 46.53857422 26.11621094 C47.57280518 26.71030762 48.60703613 27.3044043 49.67260742 27.91650391 C50.5859082 28.43897705 51.49920898 28.9614502 52.44018555 29.49975586 C54.64135742 30.86572266 54.64135742 30.86572266 56.64135742 32.86572266 C56.99536133 35.3137207 56.99536133 35.3137207 56.64135742 37.86572266 C55.14282227 39.39624023 55.14282227 39.39624023 52.97729492 40.69775391 C52.15197266 41.20258301 51.32665039 41.70741211 50.47631836 42.22753906 C49.54078125 42.76813965 48.60524414 43.30874023 47.64135742 43.86572266 C46.63105469 44.4591748 45.62075195 45.05262695 44.57983398 45.6640625 C41.15574983 47.65182862 37.71427809 49.60726352 34.26635742 51.55322266 C31.77859865 52.9607035 29.29175574 54.36979232 26.80541992 55.77978516 C26.19321594 56.12660843 25.58101196 56.4734317 24.95025635 56.83076477 C21.18136258 58.97182618 17.44441555 61.15888778 13.72729492 63.38916016 C12.85766113 63.90776611 11.98802734 64.42637207 11.09204102 64.96069336 C9.49779083 65.91536937 7.90920039 66.87958302 6.32739258 67.85473633 C1.16173983 70.93167895 1.16173983 70.93167895 -1.45629883 70.59985352 C-3.35864258 69.86572266 -3.35864258 69.86572266 -5.35864258 67.86572266 C-5.61933899 65.17774963 -5.61933899 65.17774963 -5.63330078 61.71948242 C-5.64283279 60.42796768 -5.65236481 59.13645294 -5.66218567 57.80580139 C-5.66192425 56.38957695 -5.66098723 54.9733525 -5.65942383 53.55712891 C-5.6633094 52.10985694 -5.66764378 50.66258611 -5.67240906 49.21531677 C-5.67987731 46.17972113 -5.67957578 43.14424178 -5.67431641 40.10864258 C-5.66852239 36.21668858 -5.68544768 32.32521058 -5.70866108 28.4333353 C-5.72338692 25.44363111 -5.72427169 22.45404182 -5.72115135 19.46430779 C-5.7216652 18.02936803 -5.72691482 16.59442195 -5.73696327 15.15951729 C-5.74928599 13.15350085 -5.74060828 11.14738849 -5.73095703 9.14135742 C-5.73158646 7.99933365 -5.73221588 6.85730988 -5.73286438 5.68067932 C-5.35864258 2.86572266 -5.35864258 2.86572266 -3.98278809 0.96510315 C-2.35864258 -0.13427734 -2.35864258 -0.13427734 0 0 Z " fill="#FAFAFA" transform="translate(95.358642578125,77.13427734375)"/>
</svg>
